<svg width="103" height="100" viewBox="0 0 103 100" fill="none" xmlns="http://www.w3.org/2000/svg">
    <path d="M189.691 -26.7539L188.508 -30.0144V-49.9035L170.226 -60.5678L153.76 -89.3634H120.765L102.5 -100L84.2367 -89.3634H51.2415L34.7755 -60.5663L16.4937 -49.902V-30.0128L15.3104 -26.7523L0 -0.00999451L15.3104 26.7523L16.4937 30.0036V49.902L34.7478 60.5386L51.2508 89.3634H84.246L102.5 100L120.754 89.3634H153.749L170.252 60.5386L188.506 49.902V30.0036L189.69 26.7523L205 -0.00999451L189.691 -26.7539ZM169.07 -57.4734L185.285 -48.0256V-29.3269L169.061 -19.8791L152.839 -29.3177V-48.0272L169.061 -57.4749V-57.4657L169.07 -57.4734ZM102.5 17.0446L87.8699 25.5635V8.51808L73.2306 -0.00999451L87.8699 -8.52885V-25.5742L102.5 -17.0462L117.13 -25.5742V-8.52885L131.769 -0.00999451L117.13 8.51808V25.5635L102.5 17.0446ZM116.544 28.9732L102.5 53.5054L88.4577 28.9716L102.5 20.7973L116.544 28.9732ZM48.1004 -0.00999451L38.1388 -17.3999L53.1869 -26.1694L68.1518 -0.0115356L53.1869 26.1571L38.1388 17.3876L48.1004 -0.00999451ZM35.9403 14.7315L27.5076 -0.00999451L35.9403 -14.7423L44.3731 -0.00999451L35.9403 14.7315ZM56.561 -26.7539H84.6455V-10.4052L70.6033 -2.23083L56.561 -26.7539ZM70.6048 2.22006L84.6471 10.3944V26.7523H56.561L70.6048 2.22006ZM88.4577 -28.9839L102.5 -53.5162L116.542 -28.9839L102.5 -20.8004L88.4577 -28.9839ZM120.354 -10.4052V-26.7539H148.439L134.397 -2.23083L120.354 -10.4052ZM120.354 10.3944L134.397 2.22006L148.439 26.7523H120.354V10.3944ZM136.848 -0.00999451L151.813 -26.1679L166.863 -17.3984L156.901 -0.008461L166.863 17.3907L151.813 26.1602L136.848 -0.00999451ZM160.627 -0.00999451L169.06 -14.7423L177.492 -0.00999451L169.06 14.7315L160.627 -0.00999451ZM121.948 -86.1121H151.887L166.861 -59.9526L151.821 -51.1831L141.859 -68.5822H121.948V-86.1121ZM148.319 -50.7848H131.564L123.243 -65.3325H139.997L148.319 -50.7848ZM129.701 -47.5335H149.613V-30.0144H119.674L104.709 -56.1723L119.75 -64.9326L129.701 -47.5335ZM86.2778 -86.7903L102.5 -96.2473L118.722 -86.7903V-68.1008L102.509 -58.6438L102.5 -58.653L102.491 -58.6438L86.2778 -68.1008V-86.7903ZM85.2518 -64.9326L100.291 -56.1723L85.3259 -30.0144H55.3869V-47.5335H75.2994L85.2518 -64.9326ZM56.6829 -50.7848L65.0045 -65.3325H81.759L73.4373 -50.7848H56.6829ZM53.1144 -86.1121H83.0534V-68.5838H63.1409L53.1792 -51.1846L38.1388 -59.9542L53.1144 -86.1121ZM19.7166 -48.0272L35.9295 -57.4749L35.9388 -57.4657V-57.4749L52.161 -48.0272V-29.3192L35.9388 -19.8806L19.7166 -29.3269V-48.0272ZM3.72733 -0.00999451L18.6922 -26.1679L33.7419 -17.3984L23.7802 -0.008461L33.7419 17.3907L18.6922 26.1602L3.72733 -0.00999451ZM35.9403 57.4719L19.7166 48.0149V29.3161L35.9403 19.8684L52.1625 29.3161V48.0149L35.9403 57.4626V57.4719ZM83.0534 86.1013H53.1144L38.1403 59.9434L53.1792 51.1831L63.1409 68.5822H83.0534V86.1013ZM56.6829 50.7832H73.4373L81.759 65.3309H65.0045L56.6829 50.7832ZM75.301 47.5319H55.3869V30.0036H85.3259L100.291 56.1615L85.2518 64.9311L75.301 47.5319ZM118.724 86.7888L102.502 96.2366L86.2793 86.7888V68.0901L102.492 58.6423L102.502 58.6515L102.511 58.6423L118.724 68.0901V86.7888ZM119.748 64.9311L104.708 56.1615L119.673 30.0036H149.612V47.5319H129.701L119.748 64.9311ZM148.319 50.7832L139.997 65.3309H123.243L131.564 50.7832H148.319ZM151.887 86.1013H121.948V68.5822H141.861L151.822 51.1831L166.863 59.9434L151.887 86.1013ZM185.283 48.0149L169.06 57.4719V57.4626L152.837 48.0149V29.3161L169.06 19.8684L185.283 29.3161V48.0149ZM186.309 26.1571L171.261 17.3876L181.223 -0.0115356L171.261 -17.4014L186.309 -26.171L201.274 -0.0130692L186.309 26.1571Z" fill="url(#paint0_linear_15_147)" fill-opacity="0.25"/>
    <defs>
        <linearGradient id="paint0_linear_15_147" x1="102.501" y1="99.9985" x2="102.501" y2="-100" gradientUnits="userSpaceOnUse">
            <stop stop-color="#505D6D"/>
            <stop offset="1" stop-color="#646E86"/>
        </linearGradient>
    </defs>
</svg>
