<svg width="77" height="89" viewBox="0 0 77 89" fill="none" xmlns="http://www.w3.org/2000/svg">
    <g clip-path="url(#clip0_18_154)">
        <path d="M44.4829 88.9999V63.7074C44.4829 46.0752 59.0415 31.7804 77.0001 31.7804V57.0729C77.0001 74.7059 62.4415 88.9999 44.4829 88.9999Z" fill="#485164"/>
        <path d="M36.2172 72.1727V35.5591C36.2172 15.9201 20.0025 0 0 0V36.6136C0 56.2519 16.2147 72.1727 36.2172 72.1727Z" fill="#485164"/>
        <path d="M68.7441 18.0097C70.3155 11.5227 66.2333 5.01311 59.6263 3.4702C53.0192 1.92729 46.3891 5.93529 44.8177 12.4223C43.2462 18.9093 47.3284 25.4189 53.9355 26.9618C60.5426 28.5047 67.1726 24.4967 68.7441 18.0097Z" fill="#485164"/>
    </g>
    <defs>
        <clipPath id="clip0_18_154">
            <rect width="77" height="89" fill="white"/>
        </clipPath>
    </defs>
</svg>
